<?xml version="1.0" encoding="utf-8"?>
<!-- Generator: Adobe Illustrator 25.3.0, SVG Export Plug-In . SVG Version: 6.00 Build 0)  -->
<svg version="1.1" id="Ebene_1" xmlns="http://www.w3.org/2000/svg" xmlns:xlink="http://www.w3.org/1999/xlink" x="0px" y="0px"
	 viewBox="0 0 773.3 292.6" style="enable-background:new 0 0 773.3 292.6;" xml:space="preserve">
<style type="text/css">
	.st0{fill:#C9AB52;}
</style>
<g>
	<path class="st0" d="M770.5,106.3c0.1,0.1,0.2,0.1,0.3,0.1c0.2,0,0,0,0,0l-0.2,0.1l-0.5,0.2l-0.9,0.3c-0.6,0.2-1.2,0.4-1.9,0.6
		c-1.2,0.4-2.5,0.7-3.7,1c-2.5,0.6-5.1,1.1-7.6,1.5c-5.1,0.8-10.4,1.1-15.6,0.7c-5.2-0.4-10.5-1.5-15.4-3.7c-2.5-1-4.8-2.4-7.1-4
		c-2.2-1.6-4.3-3.4-6-5.5c-3.6-4.1-6.4-8.8-8.3-13.9l-0.4-1c-0.1-0.2-0.1-0.2-0.2-0.6l-0.1-0.5c-0.2-0.7-0.3-1.3-0.5-2
		c-0.3-1.3-0.5-2.6-0.8-3.9c-0.4-2.6-0.7-5.3-0.8-8c-0.2-5.4,0.3-10.9,1.9-16.2c1.6-5.3,4.4-10.5,8.4-14.6l2.5,6.1l-27.2,0.5
		l-27.2,0.4c-18.1,0.2-36.3,0.5-54.4,0.6l-54.4,0.5l-54.4,0.3l-1.6,0l-1.5-0.9c-1.8-1.1-3.9-2.3-5.9-3.3c-2-1.1-4.1-2.2-6.2-3.2
		c-2.1-1.1-4.2-2-6.3-3l-6.3-2.9c-8.5-3.7-17.2-6.9-26.1-9.6c-17.7-5.5-36-8.8-54.3-9.2c-18.3,0-36.7,2.9-54.5,8.2
		c-8.9,2.6-17.7,5.7-26.3,9.3l-6.4,2.8c-2.1,1-4.3,1.9-6.3,3c-2.1,1-4.2,2-6.3,3.1c-2.1,1.1-4.1,2.2-6,3.3l-1.1,0.6l-1,0l-54.4-0.9
		l-27.2-0.4l-27.2-0.3c-18.1-0.2-36.3-0.3-54.4-0.3c-18.1-0.1-36.3,0-54.4,0l1.4-3.5c3.9,3.9,6.7,8.7,8.3,13.9
		c1.6,5.2,2.3,10.5,2.2,15.8c0,2.7-0.2,5.3-0.6,7.9c-0.2,1.3-0.4,2.6-0.6,3.9c-0.1,0.7-0.3,1.3-0.4,2L72.3,82
		c-0.1,0.3-0.1,0.4-0.2,0.6l-0.4,1c-1.8,5.1-4.4,9.9-7.9,14.1c-1.7,2.1-3.8,3.9-5.9,5.7c-2.2,1.6-4.5,3.1-7,4.3
		c-4.9,2.4-10.2,3.7-15.6,4.3c-5.3,0.6-10.7,0.5-16-0.1c-2.6-0.3-5.3-0.7-7.9-1.2c-2.6-0.5-5.1-1.1-7.8-2l4.1-2.6
		c-0.2,2.3-0.2,4.8-0.2,7.3c0,2.5,0.1,4.9,0.3,7.4c0.3,4.9,1,9.8,1.8,14.7c1.7,9.7,4.4,19.3,8.1,28.4c3.7,9.1,8.4,17.8,14,25.7
		c2.8,4,5.9,7.8,9.1,11.4c3.3,3.6,6.7,7.1,10.4,10.3c14.6,13,32,22.6,50.4,29.3c18.5,6.7,38,10.7,57.7,12.8
		c9.9,1.1,19.8,1.7,29.8,1.9c2.5,0.1,5,0.1,7.5,0.1c2.5,0,5,0,7.5,0l15.2-0.1l60.7-0.3l30.4-0.1l15.2-0.1l7.6,0l3.8,0l0.9,0l0.6,0
		l0.5,0l2.1,0.1c5.4,0.3,10.7,1,16,2.1c5.3,1.1,10.6,2.6,15.9,4.9c2.6,1.1,5.2,2.6,7.7,4.2c2.5,1.7,4.9,3.7,7.1,6.2
		c2.1,2.5,3.9,5.4,5.1,8.6c1.2,3.2,1.7,6.6,1.7,9.8h-13.9c0.1-3.3,0.6-6.6,1.7-9.8c1.2-3.2,3-6.1,5.1-8.6c2.1-2.5,4.6-4.5,7.1-6.2
		c2.5-1.7,5.1-3.1,7.7-4.2c5.2-2.3,10.6-3.8,15.9-4.9c5.3-1.1,10.6-1.8,16-2.1l2.1-0.1l0.5,0l0.6,0l0.9,0l3.8,0l7.6,0l15.2,0.1
		l30.4,0.2l60.7,0.5l15.2,0.1c2.5,0,5,0,7.5,0c2.5,0,5,0,7.5-0.1c10-0.1,19.9-0.7,29.8-1.8c9.9-1,19.7-2.5,29.4-4.6
		c9.7-2,19.3-4.7,28.6-8c2.3-0.8,4.6-1.7,6.9-2.6c2.3-0.9,4.5-1.9,6.8-2.9c4.5-2.1,8.9-4.2,13.2-6.7c2.2-1.2,4.2-2.5,6.4-3.8
		c1-0.7,2.1-1.4,3.1-2c1-0.7,2.1-1.4,3-2.1c4.1-2.8,7.9-5.9,11.6-9.2c14.8-13,26.6-29.5,34.2-48c3.8-9.2,6.6-18.8,8.5-28.7
		c0.9-4.9,1.6-9.9,2-14.9c0.2-2.5,0.3-5,0.4-7.5c0-1.3,0-2.5,0-3.8l0-1.9l0-0.9l0-0.5C770.2,106.2,770.3,106.4,770.5,106.3z
		 M771.2,105.2c0.2,0.2,0.4,0.7,0.4,1l0.1,0.5l0.1,1l0.1,1.9c0.1,1.3,0.1,2.5,0.2,3.8c0.1,2.5,0.1,5.1,0,7.6
		c-0.1,5.1-0.6,10.2-1.2,15.3c-1.4,10.1-3.8,20.1-7.3,29.8c-3.5,9.7-8.1,18.9-13.8,27.6c-2.8,4.3-5.9,8.5-9.2,12.5
		c-3.3,4-6.9,7.8-10.6,11.3c-15.1,14.3-33.3,25-52.5,32.5c-9.6,3.8-19.5,6.8-29.5,9.2c-10,2.4-20.2,4.2-30.4,5.5
		c-10.2,1.3-20.4,2.1-30.7,2.5c-2.6,0.1-5.1,0.2-7.7,0.2c-2.6,0.1-5.1,0.1-7.7,0.1l-15.2,0.1l-60.7,0.5l-30.3,0.2l-15.2,0.1l-7.6,0
		l-3.8,0l-0.9,0l-0.4,0l-0.4,0l-1.7,0.1c-9.4,0.7-19,2.4-27.1,6c-2,0.9-3.9,1.9-5.6,3.1c-1.7,1.1-3.2,2.4-4.3,3.8
		c-1.2,1.4-2,2.8-2.6,4.4c-0.5,1.6-0.8,3.2-0.9,5h-13.9c-0.1-1.8-0.3-3.5-0.9-5c-0.6-1.5-1.5-3-2.6-4.3c-1.2-1.4-2.6-2.6-4.3-3.8
		c-1.7-1.1-3.5-2.2-5.6-3c-8.1-3.5-17.7-5.3-27.1-6l-1.7-0.1l-0.4,0l-0.4,0l-0.9,0l-3.8,0l-7.6,0l-15.2-0.1l-30.3-0.1l-60.7-0.3
		l-15.2-0.1c-2.5,0-5.1-0.1-7.7-0.1c-2.6,0-5.1-0.1-7.7-0.2c-10.3-0.3-20.5-1.1-30.8-2.4c-20.4-2.5-40.8-6.9-60.2-14.4
		c-2.4-0.9-4.8-2-7.2-2.9c-2.4-1-4.8-2.1-7.1-3.2c-4.7-2.3-9.3-4.7-13.8-7.5c-2.3-1.3-4.4-2.8-6.6-4.2c-1.1-0.7-2.1-1.5-3.2-2.2
		c-1.1-0.7-2.1-1.5-3.2-2.3c-4.2-3.1-8.2-6.5-12-10.1c-3.9-3.5-7.4-7.4-10.8-11.4c-3.4-4-6.5-8.2-9.4-12.6
		c-5.8-8.7-10.5-18.1-14.1-27.9c-3.6-9.8-6.1-19.9-7.7-30.1c-0.7-5.1-1.2-10.3-1.4-15.5c-0.1-2.6-0.1-5.2-0.1-7.8
		c0.1-2.6,0.2-5.1,0.4-7.9l0.4-3.9l3.7,1.3c2.2,0.8,4.6,1.4,7,2c2.4,0.6,4.8,1,7.3,1.3c4.9,0.7,9.8,0.8,14.7,0.4
		c4.8-0.5,9.6-1.5,14-3.5c2.2-0.9,4.2-2.2,6.2-3.6c1.9-1.5,3.7-3,5.2-4.9c3.1-3.6,5.6-7.9,7.2-12.4l0.3-0.8c0-0.1,0.1-0.3,0.1-0.3
		l0.1-0.4c0.1-0.6,0.3-1.2,0.4-1.8c0.3-1.2,0.5-2.4,0.6-3.6c0.4-2.4,0.6-4.9,0.6-7.4c0.1-4.9-0.4-9.9-1.8-14.5
		c-1.4-4.6-3.9-8.9-7.2-12.3l-3.5-3.5l4.9,0c18.1,0,36.3,0.1,54.4,0c18.1,0,36.3-0.2,54.4-0.3l27.2-0.3l27.2-0.4l54.4-0.9l-2.1,0.6
		c2.2-1.3,4.2-2.6,6.3-3.7c2.1-1.2,4.2-2.3,6.4-3.5c2.1-1.1,4.3-2.2,6.5-3.3l6.5-3.1c8.8-4,17.8-7.5,27-10.5
		c9.2-3.1,18.6-5.4,28.2-7.2l7.2-1.2c2.4-0.3,4.9-0.5,7.3-0.8l3.7-0.4l3.7-0.2l7.4-0.3l7.4,0.2l3.7,0.1l3.7,0.3
		c2.4,0.2,4.9,0.4,7.3,0.7l7.3,1.1c9.6,1.6,19.2,3.8,28.4,6.7c9.3,2.9,18.4,6.2,27.3,10.1l6.6,3c2.2,1.1,4.4,2.1,6.5,3.2
		c2.2,1.1,4.3,2.2,6.5,3.4c2.2,1.2,4.2,2.3,6.5,3.7l-3-0.9l54.4,0.3l54.4,0.5c18.1,0.1,36.3,0.4,54.4,0.6l27.2,0.4l27.2,0.5l8.7,0.2
		l-6.2,5.9c-3.3,3.1-5.7,7.1-7.2,11.6c-1.5,4.4-2.1,9.3-2.2,14.1c0,2.4,0.1,4.9,0.4,7.3c0.1,1.2,0.3,2.4,0.5,3.6
		c0.1,0.6,0.2,1.2,0.4,1.8l0.1,0.4c0,0,0.1,0.2,0.1,0.3l0.3,0.8c1.5,4.5,3.8,8.9,6.8,12.6c1.5,1.9,3.3,3.5,5.1,5.1
		c1.9,1.4,3.9,2.8,6.1,3.9c4.3,2.2,9.2,3.5,14.1,4.2c4.9,0.6,10,0.7,15,0.2c2.5-0.2,5-0.6,7.5-1c1.2-0.2,2.5-0.5,3.7-0.8
		c0.6-0.1,1.2-0.3,1.8-0.4l0.9-0.2l0.5-0.1l0.2-0.1c0.1,0,0,0,0.2-0.1C770.8,105.1,771,105.1,771.2,105.2z"/>
</g>
<g>
	<path class="st0" d="M229.7,67.4c-4.1,2.2-6.7,5.8-7.8,10.7c-0.5,2.2-0.7,6.8-0.7,13.8v101.9c0,11.5-0.4,18.5-1.1,20.9
		c-1.9,6.6-8.3,12.4-18.9,17.5c-7.2,3.4-14.7,5.3-22.8,5.8c8.2-5.1,14.3-10.7,18.2-16.7c3.5-5.5,5.3-14.6,5.3-27.5V91.9
		c0-6.9-0.2-11.5-0.7-13.8c-1.1-4.9-3.7-8.4-7.8-10.7H229.7z"/>
	<path class="st0" d="M337.8,193.9h-23.8v-12.6c-4.6,5.8-8.9,9.8-12.7,11.9c-3.9,2.1-8.9,3.2-15.1,3.2c-13.2,0-22.8-4.5-28.8-13.5
		c-3.6-5.5-5.5-13.6-5.5-24.4v-34.4c0-6.2-0.4-10.2-1.1-12.1c-0.7-1.9-2.8-4.2-6.2-6.8h13.1c5.3,0,9.2-1.2,11.5-3.6v53.5
		c0,8.9,1.6,15.2,4.7,19.1c3.9,4.9,9.6,7.3,17.1,7.3c6.7,0,12-2.1,16.1-6.3c4.1-4.2,6.1-9.7,6.1-16.7v-34.4c0-6.2-0.4-10.3-1.1-12.2
		c-0.7-1.9-2.8-4.2-6.2-6.7h13.5c5.1,0,8.8-1.2,11.1-3.6v73.3c0,6.2,0.4,10.2,1.1,12.1C332.3,188.9,334.4,191.2,337.8,193.9z"/>
	<path class="st0" d="M384.4,193.9h-31.9c3.4-2.7,5.5-4.9,6.2-6.8c0.7-1.9,1.1-5.9,1.1-12.1v-50.8c0-6.2-0.4-10.2-1.1-12.1
		c-0.7-1.9-2.8-4.2-6.2-6.8h13.3c5.2,0,9-1.2,11.3-3.6v73.3c0,6.2,0.4,10.2,1.1,12.1C378.9,188.9,381,191.2,384.4,193.9z M380,81.6
		c0,3.4-1.2,6.3-3.5,8.6c-2.3,2.3-5.2,3.5-8.6,3.5c-3.3,0-6.1-1.2-8.4-3.5c-2.3-2.3-3.5-5.2-3.5-8.6c0-3.3,1.2-6.1,3.5-8.4
		c2.4-2.3,5.2-3.5,8.6-3.5c3.2,0,5.9,1.2,8.2,3.5C378.8,75.6,380,78.4,380,81.6z"/>
	<path class="st0" d="M487,174.2l-11.3,18.7c-5.8,2.3-14,3.5-24.6,3.5c-15.3,0-27.8-4.2-37.7-12.6c-9.8-8.4-14.7-19.3-14.7-32.5
		c0-13.7,5.2-25.4,15.7-34.9c9.8-9.1,22.9-13.6,39.1-13.6c7,0,14,0.8,20.9,2.4v19.8c-6.3-6.3-14.3-9.5-24-9.5
		c-9.7,0-17.5,2.9-23.3,8.7c-5.8,5.8-8.7,13.5-8.7,23.1c0,10.5,3.7,19.2,11.2,26.1c7.5,6.9,16.8,10.3,28.1,10.3
		C467.5,183.7,477.3,180.5,487,174.2z"/>
	<path class="st0" d="M587.7,105.2l-41,97.7c-4.2,10.1-9.2,17.4-14.7,21.8c-7,5.6-15.7,8.4-26,8.4c-6.6,0-14.3-1.6-23.3-4.9
		l17.3-12.6c3.6,2.3,7.3,3.5,10.9,3.5c9.8,0,17.3-7.3,22.6-21.9l1.8-5.1c-4.1-4.1-7.4-8.9-9.8-14.2l-25.5-55.6
		c-2.4-5.3-4.6-9.2-6.6-11.5c-1.9-2.3-4.5-4.2-7.8-5.7l18.6-0.7c2.7-0.1,4.6,0,5.7,0.3c1.2,0.3,2.5,2.3,4.1,5.9l29.3,66.1l20.2-51.1
		c1.9-5,2.9-8.9,2.9-11.6c0-3.3-1.9-6.2-5.6-8.7H587.7z"/>
</g>
</svg>
