<?xml version="1.0" encoding="utf-8"?>
<!-- Generator: Adobe Illustrator 25.3.0, SVG Export Plug-In . SVG Version: 6.00 Build 0)  -->
<svg version="1.1" id="Ebene_1" xmlns="http://www.w3.org/2000/svg" xmlns:xlink="http://www.w3.org/1999/xlink" x="0px" y="0px"
	 viewBox="0 0 773.3 292.6" style="enable-background:new 0 0 773.3 292.6;" xml:space="preserve">
<style type="text/css">
	.st0{fill:#C9AB52;}
</style>
<g>
	<path class="st0" d="M770.5,106.3c0.1,0.1,0.2,0.1,0.3,0.1c0.2,0,0,0,0,0l-0.2,0.1l-0.5,0.2l-0.9,0.3c-0.6,0.2-1.2,0.4-1.9,0.6
		c-1.2,0.4-2.5,0.7-3.7,1c-2.5,0.6-5.1,1.1-7.6,1.5c-5.1,0.8-10.4,1.1-15.6,0.7c-5.2-0.4-10.5-1.5-15.4-3.7c-2.5-1-4.8-2.4-7.1-4
		c-2.2-1.6-4.3-3.4-6-5.5c-3.6-4.1-6.4-8.8-8.3-13.9l-0.4-1c-0.1-0.2-0.1-0.2-0.2-0.6l-0.1-0.5c-0.2-0.7-0.3-1.3-0.5-2
		c-0.3-1.3-0.5-2.6-0.8-3.9c-0.4-2.6-0.7-5.3-0.8-8c-0.2-5.4,0.3-10.9,1.9-16.2c1.6-5.3,4.4-10.5,8.4-14.6l2.5,6.1l-27.2,0.5
		l-27.2,0.4c-18.1,0.2-36.3,0.5-54.4,0.6L550.4,45L496,45.3h-1.6l-1.5-0.9c-1.8-1.1-3.9-2.3-5.9-3.3c-2-1.1-4.1-2.2-6.2-3.2
		c-2.1-1.1-4.2-2-6.3-3l-6.3-2.9c-8.5-3.7-17.2-6.9-26.1-9.6c-17.7-5.5-36-8.8-54.3-9.2c-18.3,0-36.7,2.9-54.5,8.2
		c-8.9,2.6-17.7,5.7-26.3,9.3l-6.4,2.8c-2.1,1-4.3,1.9-6.3,3c-2.1,1-4.2,2-6.3,3.1c-2.1,1.1-4.1,2.2-6,3.3l-1.1,0.6h-1l-54.4-0.9
		l-27.2-0.4l-27.2-0.3c-18.1-0.2-36.3-0.3-54.4-0.3c-18.1-0.1-36.3,0-54.4,0l1.4-3.5C67.6,42,70.4,46.8,72,52
		c1.6,5.2,2.3,10.5,2.2,15.8c0,2.7-0.2,5.3-0.6,7.9c-0.2,1.3-0.4,2.6-0.6,3.9c-0.1,0.7-0.3,1.3-0.4,2L72.3,82
		c-0.1,0.3-0.1,0.4-0.2,0.6l-0.4,1c-1.8,5.1-4.4,9.9-7.9,14.1c-1.7,2.1-3.8,3.9-5.9,5.7c-2.2,1.6-4.5,3.1-7,4.3
		c-4.9,2.4-10.2,3.7-15.6,4.3c-5.3,0.6-10.7,0.5-16-0.1c-2.6-0.3-5.3-0.7-7.9-1.2s-5.1-1.1-7.8-2l4.1-2.6c-0.2,2.3-0.2,4.8-0.2,7.3
		s0.1,4.9,0.3,7.4c0.3,4.9,1,9.8,1.8,14.7c1.7,9.7,4.4,19.3,8.1,28.4c3.7,9.1,8.4,17.8,14,25.7c2.8,4,5.9,7.8,9.1,11.4
		c3.3,3.6,6.7,7.1,10.4,10.3c14.6,13,32,22.6,50.4,29.3c18.5,6.7,38,10.7,57.7,12.8c9.9,1.1,19.8,1.7,29.8,1.9
		c2.5,0.1,5,0.1,7.5,0.1s5,0,7.5,0l15.2-0.1L280,255l30.4-0.1l15.2-0.1h7.6h3.8h0.9h0.6h0.5l2.1,0.1c5.4,0.3,10.7,1,16,2.1
		c5.3,1.1,10.6,2.6,15.9,4.9c2.6,1.1,5.2,2.6,7.7,4.2c2.5,1.7,4.9,3.7,7.1,6.2c2.1,2.5,3.9,5.4,5.1,8.6s1.7,6.6,1.7,9.8h-13.9
		c0.1-3.3,0.6-6.6,1.7-9.8c1.2-3.2,3-6.1,5.1-8.6s4.6-4.5,7.1-6.2s5.1-3.1,7.7-4.2c5.2-2.3,10.6-3.8,15.9-4.9
		c5.3-1.1,10.6-1.8,16-2.1l2.1-0.1h0.5h0.6h0.9h3.8h7.6l15.2,0.1l30.4,0.2l60.7,0.5l15.2,0.1c2.5,0,5,0,7.5,0s5,0,7.5-0.1
		c10-0.1,19.9-0.7,29.8-1.8c9.9-1,19.7-2.5,29.4-4.6c9.7-2,19.3-4.7,28.6-8c2.3-0.8,4.6-1.7,6.9-2.6c2.3-0.9,4.5-1.9,6.8-2.9
		c4.5-2.1,8.9-4.2,13.2-6.7c2.2-1.2,4.2-2.5,6.4-3.8c1-0.7,2.1-1.4,3.1-2c1-0.7,2.1-1.4,3-2.1c4.1-2.8,7.9-5.9,11.6-9.2
		c14.8-13,26.6-29.5,34.2-48c3.8-9.2,6.6-18.8,8.5-28.7c0.9-4.9,1.6-9.9,2-14.9c0.2-2.5,0.3-5,0.4-7.5c0-1.3,0-2.5,0-3.8v-1.9v-0.9
		v-0.5C770.2,106.2,770.3,106.4,770.5,106.3z M771.2,105.2c0.2,0.2,0.4,0.7,0.4,1l0.1,0.5l0.1,1l0.1,1.9c0.1,1.3,0.1,2.5,0.2,3.8
		c0.1,2.5,0.1,5.1,0,7.6c-0.1,5.1-0.6,10.2-1.2,15.3c-1.4,10.1-3.8,20.1-7.3,29.8s-8.1,18.9-13.8,27.6c-2.8,4.3-5.9,8.5-9.2,12.5
		s-6.9,7.8-10.6,11.3c-15.1,14.3-33.3,25-52.5,32.5c-9.6,3.8-19.5,6.8-29.5,9.2s-20.2,4.2-30.4,5.5s-20.4,2.1-30.7,2.5
		c-2.6,0.1-5.1,0.2-7.7,0.2c-2.6,0.1-5.1,0.1-7.7,0.1l-15.2,0.1l-60.7,0.5l-30.3,0.2l-15.2,0.1h-7.6h-3.8h-0.9h-0.4H437l-1.7,0.1
		c-9.4,0.7-19,2.4-27.1,6c-2,0.9-3.9,1.9-5.6,3.1c-1.7,1.1-3.2,2.4-4.3,3.8c-1.2,1.4-2,2.8-2.6,4.4c-0.5,1.6-0.8,3.2-0.9,5h-13.9
		c-0.1-1.8-0.3-3.5-0.9-5s-1.5-3-2.6-4.3c-1.2-1.4-2.6-2.6-4.3-3.8c-1.7-1.1-3.5-2.2-5.6-3c-8.1-3.5-17.7-5.3-27.1-6l-1.7-0.1h-0.4
		h-0.4H337h-3.8h-7.6l-15.2-0.1l-30.3-0.1l-60.7-0.3l-15.2-0.1c-2.5,0-5.1-0.1-7.7-0.1c-2.6,0-5.1-0.1-7.7-0.2
		c-10.3-0.3-20.5-1.1-30.8-2.4c-20.4-2.5-40.8-6.9-60.2-14.4c-2.4-0.9-4.8-2-7.2-2.9c-2.4-1-4.8-2.1-7.1-3.2
		c-4.7-2.3-9.3-4.7-13.8-7.5c-2.3-1.3-4.4-2.8-6.6-4.2c-1.1-0.7-2.1-1.5-3.2-2.2c-1.1-0.7-2.1-1.5-3.2-2.3c-4.2-3.1-8.2-6.5-12-10.1
		c-3.9-3.5-7.4-7.4-10.8-11.4s-6.5-8.2-9.4-12.6c-5.8-8.7-10.5-18.1-14.1-27.9c-3.6-9.8-6.1-19.9-7.7-30.1
		C2,131.4,1.5,126.2,1.3,121c-0.1-2.6-0.1-5.2-0.1-7.8c0.1-2.6,0.2-5.1,0.4-7.9l0.4-3.9l3.7,1.3c2.2,0.8,4.6,1.4,7,2s4.8,1,7.3,1.3
		c4.9,0.7,9.8,0.8,14.7,0.4c4.8-0.5,9.6-1.5,14-3.5c2.2-0.9,4.2-2.2,6.2-3.6c1.9-1.5,3.7-3,5.2-4.9c3.1-3.6,5.6-7.9,7.2-12.4
		l0.3-0.8c0-0.1,0.1-0.3,0.1-0.3l0.1-0.4c0.1-0.6,0.3-1.2,0.4-1.8c0.3-1.2,0.5-2.4,0.6-3.6c0.4-2.4,0.6-4.9,0.6-7.4
		c0.1-4.9-0.4-9.9-1.8-14.5s-3.9-8.9-7.2-12.3l-3.5-3.5h4.9c18.1,0,36.3,0.1,54.4,0c18.1,0,36.3-0.2,54.4-0.3l27.2-0.3l27.2-0.4
		l54.4-0.9l-2.1,0.6c2.2-1.3,4.2-2.6,6.3-3.7c2.1-1.2,4.2-2.3,6.4-3.5c2.1-1.1,4.3-2.2,6.5-3.3l6.5-3.1c8.8-4,17.8-7.5,27-10.5
		c9.2-3.1,18.6-5.4,28.2-7.2l7.2-1.2c2.4-0.3,4.9-0.5,7.3-0.8l3.7-0.4l3.7-0.2l7.4-0.3l7.4,0.2l3.7,0.1l3.7,0.3
		c2.4,0.2,4.9,0.4,7.3,0.7l7.3,1.1c9.6,1.6,19.2,3.8,28.4,6.7c9.3,2.9,18.4,6.2,27.3,10.1l6.6,3c2.2,1.1,4.4,2.1,6.5,3.2
		c2.2,1.1,4.3,2.2,6.5,3.4c2.2,1.2,4.2,2.3,6.5,3.7l-3-0.9l54.4,0.3l54.4,0.5c18.1,0.1,36.3,0.4,54.4,0.6l27.2,0.4l27.2,0.5L722,36
		l-6.2,5.9c-3.3,3.1-5.7,7.1-7.2,11.6c-1.5,4.4-2.1,9.3-2.2,14.1c0,2.4,0.1,4.9,0.4,7.3c0.1,1.2,0.3,2.4,0.5,3.6
		c0.1,0.6,0.2,1.2,0.4,1.8l0.1,0.4c0,0,0.1,0.2,0.1,0.3l0.3,0.8c1.5,4.5,3.8,8.9,6.8,12.6c1.5,1.9,3.3,3.5,5.1,5.1
		c1.9,1.4,3.9,2.8,6.1,3.9c4.3,2.2,9.2,3.5,14.1,4.2c4.9,0.6,10,0.7,15,0.2c2.5-0.2,5-0.6,7.5-1c1.2-0.2,2.5-0.5,3.7-0.8
		c0.6-0.1,1.2-0.3,1.8-0.4l0.9-0.2l0.5-0.1l0.2-0.1c0.1,0,0,0,0.2-0.1C770.8,105.1,771,105.1,771.2,105.2z"/>
</g>
<g>
	<path class="st0" d="M147.5,165.2l-6.4,14.8c-6.2,2.5-12.7,3.7-19.7,3.7c-14.5,0-26.1-4-34.9-11.9c-8.8-8-13.1-18.5-13.1-31.6
		c0-12.6,4.2-23.1,12.7-31.4c8.5-8.3,19.2-12.5,32.2-12.5c6.3,0,13.9,1.1,22.8,3.2V114c-8.1-4.6-15.8-7-23-7
		c-8.9,0-16.1,2.9-21.8,8.7c-5.6,5.8-8.5,13.2-8.5,22.3c0,9.9,3.1,18.3,9.2,25.2c6.2,6.9,13.7,10.3,22.7,10.3
		C127.9,173.5,137.1,170.8,147.5,165.2z"/>
	<path class="st0" d="M215.1,181.7h-21.1c2.2-1.7,3.6-3.2,4.1-4.4c0.5-1.3,0.8-4,0.8-8v-22.4c0-5.1-0.8-8.7-2.4-10.8
		c-2.7-3.6-6.8-5.4-12.2-5.4c-5.3,0-9.3,1.7-12.1,5c-1,1.2-1.7,2.4-1.9,3.5c-0.2,1.2-0.4,3.5-0.4,6.9v23.2c0,4.1,0.2,6.7,0.7,8
		c0.5,1.2,1.9,2.7,4.2,4.5h-21.1c2.2-1.8,3.6-3.3,4.1-4.5c0.5-1.2,0.7-3.9,0.7-8v-58.4c0-4.2-0.2-6.8-0.7-8
		c-0.4-1.2-1.8-2.7-4.1-4.5h8.8c3.4,0,5.9-0.8,7.4-2.4v33.7c4.1-5.4,10.4-8,19-8c8.3,0,14.4,2.8,18.4,8.3c2.1,2.9,3.1,7.2,3.1,13.1
		v26.3c0,4,0.2,6.6,0.7,7.9C211.5,178.4,212.8,179.9,215.1,181.7z"/>
	<path class="st0" d="M284.4,174.2l-5.6,8.3c-5.7-0.4-9.6-1.3-11.9-2.8c-2.3-1.5-3.7-3.4-4.3-5.8c-0.4-1.4-0.6-4-0.6-7.6V150
		c-2.9,1.4-8.2,3-16,4.8c-6,1.4-9,4.7-9,9.8c0,3.2,1.2,5.7,3.5,7.6c2.4,1.8,5.7,2.8,9.9,2.8c2.7,0,5.9-0.6,9.5-1.8l-7.4,9.5
		c-2.2,0.5-4.6,0.7-7,0.7c-6.3,0-11.3-1.6-15-4.9c-4.3-3.8-6.5-8.5-6.5-14.1c0-5.9,2.4-10.1,7.1-12.7c3.2-1.8,8.8-3.4,16.7-4.9
		c5.6-1,9.4-2.2,11.3-3.4c2-1.2,2.9-3,2.9-5.3c0-2.4-1.1-4.4-3.4-5.8c-2.2-1.5-5.2-2.2-8.8-2.2c-4.5,0-10.2,1.7-17.3,5.2l8.4-12.7
		c2.8-0.6,5.7-0.8,8.8-0.8c10.7,0,17.8,2.8,21.4,8.5c1.7,2.7,2.5,7.8,2.5,15.1v16.3c0,3.4,0.1,5.5,0.4,6.5c0.5,2,1.7,3.6,3.7,4.8
		C279.2,173.7,281.5,174.2,284.4,174.2z"/>
	<path class="st0" d="M391.8,181.7h-22c2.2-1.7,3.6-3.2,4.1-4.4c0.5-1.3,0.8-4,0.8-8.1v-19.6c0-6.5-1.1-11.1-3.2-13.8
		c-2.6-3.3-6.4-4.9-11.3-4.9c-6,0-10.2,2.4-12.7,7.1c-0.9,1.7-1.3,4.9-1.3,9.6v21.7c0,4.1,0.2,6.8,0.7,8c0.5,1.2,1.9,2.7,4.2,4.5
		H330c2.2-1.7,3.6-3.2,4.1-4.4c0.5-1.3,0.7-4,0.7-8v-20.6c0-6-1.3-10.4-3.9-13.1c-2.6-2.7-6.1-4.1-10.5-4.1
		c-6.2,0-10.4,2.4-12.7,7.1c-0.9,1.8-1.3,4.5-1.3,8.3v22.4c0,4.1,0.2,6.8,0.7,8c0.5,1.3,1.8,2.8,4.1,4.4h-21
		c2.2-1.8,3.6-3.3,4.1-4.5c0.5-1.2,0.7-3.9,0.7-8v-33.5c0-4.1-0.2-6.7-0.7-8c-0.5-1.2-1.8-2.7-4.1-4.5h8.8c3.2,0,5.5-0.8,6.8-2.4
		v10.7c4.9-6.6,11-10,18.5-10c8.3,0,14.8,3.7,19.3,11.2c3-4.1,6.1-7,9.1-8.6c3-1.7,6.6-2.5,10.9-2.5c4.6,0,8.6,0.9,12.2,2.8
		c4.1,2,7,4.9,8.6,8.8c1.2,2.8,1.8,7.3,1.8,13.4v22.7c0,3.7,0.2,6.2,0.6,7.4C387.5,178.9,389.2,180.6,391.8,181.7z"/>
	<path class="st0" d="M466.3,151.6c0,9.1-2.9,16.7-8.7,22.7c-5.8,6-13.1,9.1-21.8,9.1c-3.3,0-6.5-0.6-9.6-1.7l-6.8-10.3
		c5,2.4,9.7,3.6,14.2,3.6c6.3,0,11.2-1.9,14.6-5.8c3.4-3.9,5.2-9.3,5.2-16.3c0-6.8-1.8-12.4-5.3-16.6c-3.6-4.2-8.2-6.3-13.9-6.3
		c-6.2,0-11.1,2.3-14.8,6.9c-2.1,2.6-3.1,6.5-3.1,11.8v46.8c0,3.5,0.2,5.8,0.5,7c0.6,2.2,2,3.9,4.3,5.3h-21c2.3-1.4,3.8-3.1,4.3-5.3
		c0.3-1,0.5-3.4,0.5-7v-59.6c0-4.1-0.2-6.7-0.7-8c-0.5-1.2-1.8-2.7-4.1-4.5h8.8c3.4,0,5.9-0.8,7.4-2.4v9.8c5-6.1,12-9.1,20.9-9.1
		c8.3,0,15.4,2.9,21.1,8.8C463.6,135.8,466.3,142.9,466.3,151.6z"/>
	<path class="st0" d="M497.1,181.7h-21c2.2-1.8,3.6-3.3,4.1-4.5c0.5-1.2,0.7-3.9,0.7-8v-33.5c0-4.1-0.2-6.7-0.7-8
		c-0.5-1.2-1.8-2.7-4.1-4.5h8.8c3.4,0,5.9-0.8,7.4-2.4v48.4c0,4.1,0.2,6.7,0.7,8C493.5,178.4,494.8,179.9,497.1,181.7z M494.2,107.6
		c0,2.2-0.8,4.1-2.3,5.6c-1.5,1.5-3.4,2.3-5.6,2.3c-2.2,0-4-0.8-5.5-2.3c-1.5-1.5-2.3-3.4-2.3-5.6c0-2.2,0.8-4,2.3-5.5
		c1.6-1.5,3.5-2.3,5.7-2.3c2.1,0,3.9,0.8,5.4,2.3C493.4,103.7,494.2,105.6,494.2,107.6z"/>
	<path class="st0" d="M572.7,152.1c0,8.8-3.2,16.2-9.7,22.3c-6.5,6-14.5,9.1-24,9.1c-9.3,0-17-2.9-23.2-8.7
		c-6.2-5.8-9.2-13.1-9.2-21.9c0-10.1,4-18.2,11.9-24.2c6.1-4.6,13.6-7,22.4-7c8.7,0,16,2.7,22,8.2
		C569.4,135.8,572.7,143.3,572.7,152.1z M559.7,153.9c0-7.2-1.9-12.9-5.8-17.3s-8.9-6.6-15.1-6.6c-5.7,0-10.3,2-13.9,5.9
		c-3.6,3.9-5.4,9-5.4,15.3c0,6.8,1.9,12.5,5.8,17c3.9,4.5,8.8,6.8,14.7,6.8c5.8,0,10.6-2,14.2-5.8
		C557.9,165.2,559.7,160.1,559.7,153.9z"/>
	<path class="st0" d="M644,181.7h-21.1c2.2-1.8,3.6-3.3,4.1-4.6c0.5-1.3,0.8-3.9,0.8-7.9V149c0-6.1-0.9-10.3-2.8-12.8
		c-2.8-3.6-7-5.4-12.7-5.4c-2.6,0-5.1,0.6-7.6,1.8c-2.5,1.2-4.2,2.9-5.3,5.1c-0.6,1.3-0.8,3.2-0.8,5.9v25.6c0,4.1,0.2,6.8,0.7,8
		c0.5,1.2,1.8,2.7,4.1,4.5h-21c2.2-1.8,3.6-3.3,4.1-4.5c0.5-1.2,0.7-3.9,0.7-8v-33.5c0-4.1-0.2-6.7-0.7-8c-0.5-1.2-1.8-2.7-4.1-4.5
		h8.2c3.4,0,5.9-0.8,7.4-2.4v10.6c5.6-6.6,11.8-9.8,18.7-9.8c4.4,0,8.5,1,12.2,2.9c4.2,2.2,7.1,5.1,8.6,8.9c1,2.6,1.6,7.4,1.6,14.4
		v21.5c0,4.1,0.2,6.7,0.7,8C640.5,178.4,641.8,179.9,644,181.7z"/>
	<path class="st0" d="M701.5,163.7c0,6-2.5,10.8-7.6,14.3c-5.1,3.6-11.9,5.3-20.3,5.3c-5.8,0-11.5-1-17-3.1l-4.3-12.5
		c8.5,5.2,16.4,7.8,23.6,7.8c3.9,0,7.2-0.8,9.8-2.5c2.6-1.7,3.9-3.8,3.9-6.4c0-2.5-1-4.4-2.9-5.8c-1.5-1.1-5.6-2.8-12.1-5.2
		c-7.3-2.6-12.3-5.1-14.9-7.5c-2.7-2.4-4-5.7-4-9.7c0-5.4,2.2-9.5,6.6-12.5c4.4-3,10.5-4.5,18.2-4.5c5.4,0,10.2,0.6,14.2,1.7V134
		c-5.4-3.3-10.6-4.9-15.6-4.9c-3.4,0-6.2,0.7-8.4,2c-2.2,1.3-3.2,3-3.2,5.1c0,1.8,1,3.3,2.9,4.6c2,1.3,5.5,2.8,10.5,4.4
		c7.8,2.5,13,5,15.8,7.4C699.9,155.6,701.5,159.3,701.5,163.7z"/>
</g>
</svg>
