<?xml version="1.0" encoding="utf-8"?>
<!-- Generator: Adobe Illustrator 25.3.1, SVG Export Plug-In . SVG Version: 6.00 Build 0)  -->
<svg version="1.1" id="Ebene_1" xmlns="http://www.w3.org/2000/svg" xmlns:xlink="http://www.w3.org/1999/xlink" x="0px" y="0px"
	 viewBox="0 0 23.2 40.1" style="enable-background:new 0 0 23.2 40.1;" xml:space="preserve">
<path d="M22.2,22.4c-0.2-0.4-0.4-0.6-0.5-0.8c-0.1-0.1-0.2-0.3-0.3-0.6c-0.3-0.2-0.4-0.4-0.5-0.7s-0.2-0.5-0.4-0.7
	c0-0.3-0.1-0.5-0.3-0.7s-0.3-0.4-0.4-0.7c-0.1-0.2-0.1-0.4-0.2-0.4c0-0.1-0.1-0.1-0.1-0.2c0-0.2-0.1-0.4-0.1-0.4c0-0.1,0-0.1,0-0.1
	c-0.1-0.1-0.1-0.2-0.1-0.3s0-0.3,0-0.5c0-0.4-0.2-0.7-0.4-0.9c-0.2-0.4-0.3-0.6-0.4-0.8s-0.2-0.3-0.3-0.5c0-0.2,0-0.4-0.1-0.5
	c-0.1-0.1-0.2-0.3-0.2-0.5c-0.1-0.4-0.2-0.6-0.2-0.7c-0.1-0.1-0.1-0.2-0.1-0.3c-0.1-0.2-0.2-0.3-0.2-0.4c-0.1-0.1-0.1-0.3-0.2-0.4
	c-0.2-0.1-0.3-0.2-0.3-0.3c0-0.1-0.1-0.2-0.1-0.3c-0.1-0.2-0.2-0.4-0.3-0.5C16,10,16,9.8,16,9.6c-0.2-0.1-0.3-0.2-0.3-0.3
	c0-0.1-0.1-0.2-0.2-0.3c-0.1-0.2-0.2-0.4-0.3-0.6c-0.1-0.1-0.2-0.3-0.3-0.6c-0.1-0.2-0.2-0.3-0.3-0.5c0-0.2-0.1-0.4-0.2-0.6
	c-0.1-0.2-0.2-0.3-0.2-0.5C14.2,6.1,14.1,6,14,5.8c-0.1-0.1-0.2-0.2-0.3-0.3c-0.1-0.1-0.2-0.2-0.3-0.3c-0.1-0.2-0.2-0.4-0.3-0.7
	S13,4,12.8,3.8c-0.2-0.4-0.3-0.6-0.5-0.7c-0.2-0.1-0.2-0.2-0.1-0.5c-0.1-0.1-0.2-0.2-0.3-0.2c-0.1,0-0.2-0.1-0.2-0.2
	c0-0.2,0-0.3,0-0.4c0-0.1,0-0.1,0-0.2c-0.1-0.2-0.2-0.3-0.2-0.4c-0.1-0.1-0.1-0.1-0.1-0.2c-0.2-0.2-0.4-0.4-0.6-0.5S10.2,0.5,10,0.7
	C9.8,0.7,9.7,0.9,9.6,1.1c0,0.2-0.1,0.4-0.2,0.6C9.3,2.1,9.2,2.4,9.1,2.5S9,2.8,8.9,2.9C8.9,3.1,8.8,3.2,8.7,3.3
	C8.6,3.4,8.6,3.5,8.5,3.5C8.5,3.7,8.4,3.9,8.4,3.9c0,0.1-0.1,0.1-0.1,0.2c0,0.2-0.1,0.3-0.1,0.3s0,0.1-0.1,0.2l0,0.1
	C8,5,7.9,5.1,7.9,5.2c0,0.1-0.1,0.1-0.1,0.1c0,0.3-0.1,0.6-0.2,0.8C7.4,6.3,7.3,6.6,7.3,7C7.2,7,7.1,7.1,7.1,7.2
	C7,7.3,7,7.4,6.9,7.5C6.8,7.8,6.8,8,6.7,8.2c0,0.2-0.1,0.3-0.1,0.3C6.3,8.7,6.2,9,6.2,9.2C6.1,9.5,6,9.7,6,9.8C6,9.9,6,9.9,6,10
	c-0.2,0.4-0.3,0.7-0.4,0.9c-0.1,0.2-0.1,0.4-0.1,0.5c-0.2,0.4-0.3,0.6-0.3,0.8c0,0.1-0.1,0.3-0.1,0.5c-0.3,0.2-0.4,0.5-0.5,0.8
	c-0.1,0.3-0.2,0.6-0.5,0.9C3.9,14.8,3.9,15,3.8,15c-0.1,0.1-0.1,0.2-0.2,0.3c0,0.1-0.1,0.2-0.2,0.3c-0.1,0.1-0.1,0.3-0.2,0.4
	c0,0.1-0.1,0.3-0.1,0.4c-0.2,0.5-0.4,0.8-0.5,1c-0.1,0.2-0.3,0.4-0.4,0.5c-0.1,0.1-0.2,0.2-0.2,0.3S2.1,18.5,2,18.5
	c0.1,0.2,0.1,0.3,0,0.4c0,0.1-0.1,0.2-0.2,0.3c-0.1,0.4-0.2,0.7-0.3,0.9s-0.2,0.5-0.3,0.7c-0.2,0.3-0.3,0.6-0.4,0.9
	c-0.1,0.3-0.2,0.6-0.3,1c-0.1,0.1-0.1,0.2-0.2,0.2s-0.1,0.2-0.1,0.3c0.1,0.1,0.1,0.2,0.2,0.4s0.2,0.3,0.4,0.3c0.2,0.1,0.4,0.1,0.5,0
	c0.1-0.1,0.3-0.1,0.4-0.1c0.4,0,0.6,0,0.8,0c0.2,0,0.3,0,0.3,0C3.2,23.9,3.5,24,3.6,24c0.1,0,0.2,0,0.3,0c0.2,0,0.3,0,0.4,0
	c0.1,0,0.2,0,0.3,0c0.3-0.1,0.5-0.1,0.6-0.1s0.3,0,0.3,0c0.4-0.3,0.7-0.5,0.8-0.7c0.1-0.2,0.2-0.5,0.3-0.8C6.7,22.2,6.8,22,6.8,22
	c0-0.1,0-0.2,0-0.2c0.2-0.3,0.3-0.4,0.4-0.6c0.1-0.1,0.1-0.2,0.2-0.3c0.1-0.3,0.2-0.6,0.3-0.7c0.1-0.2,0.2-0.3,0.2-0.5
	C8,19.4,8,19.3,8,19.2c0,0,0,0,0,0c0,0.2,0,0.3,0,0.6c0,0.5,0.1,1,0.1,1.4c0.1,0.3,0.1,0.6,0,1C8.1,22.6,8,22.9,8,23
	c0,0.5,0,0.9,0,1.4c0,0.4,0.1,0.8,0,1.1c0,0.2,0,0.4,0.1,0.6c0.1,0.2,0.1,0.5,0.1,0.8c0,0.5,0,1,0.1,1.3c0.1,0.3,0.1,0.7,0.2,1.1
	c-0.1,0.3-0.1,0.6-0.2,1c-0.1,0.4-0.1,0.7,0,0.9c0,0.3,0,0.6,0,1c0,0.4,0,0.6,0,0.7c0,0.1,0,0.2,0,0.4c0,0.1,0,0.5,0,1.1
	c0,0.3-0.1,0.6-0.1,0.9s-0.1,0.6-0.1,0.9c0,0.1,0,0.3,0,0.6c0,0.3,0,0.7-0.1,1.3c0.1,0.3,0.1,0.6,0.2,0.9c0.1,0.3,0.2,0.5,0.3,0.7
	c0.5,0,0.8,0,1.1,0c0.3,0,0.5,0,0.8,0c0.2,0,0.5,0.1,0.8,0.1c0.3,0,0.6,0,1,0c0.3,0,0.7-0.1,1-0.2c0.3-0.1,0.7-0.2,1.2-0.2
	c0.2,0.1,0.3,0,0.3-0.2c0-0.2,0.1-0.3,0.2-0.4c0.1-0.7,0-1.3-0.1-1.8c-0.1-0.5-0.2-1.1-0.3-1.7c0-0.2,0-0.4,0-0.5c0-0.2,0-0.4,0-0.5
	c0-0.4-0.1-0.9-0.1-1.4c-0.1-0.5-0.1-0.9-0.2-1.1c-0.1-0.3-0.1-0.6-0.1-0.9c0-0.3-0.1-0.5-0.2-0.7c0.2-0.5,0.2-1.1,0.1-1.9
	C14,27.2,14,26.5,14,25.8c0-0.2,0-0.4,0-0.6c0-0.2-0.1-0.5-0.1-0.7c0-0.5,0.1-1,0.2-1.5c0.1-0.5,0-0.9-0.1-1.2
	c0.1-0.4,0.2-0.8,0.1-1.4c-0.1-0.6-0.1-1.2,0-1.9c0.1-0.1,0.1-0.3,0.2-0.6c0-0.1,0-0.3,0-0.5c0,0.1,0.1,0.2,0.1,0.3
	c0.1,0.3,0.2,0.5,0.2,0.7c0.1,0.1,0.1,0.1,0.2,0.2c0.1,0,0.1,0.2,0.2,0.3c0.1,0.3,0.1,0.6,0.2,1c0.1,0.4,0.2,0.7,0.2,1
	c0.2,0.4,0.3,0.6,0.4,0.8c0.1,0.1,0.1,0.3,0.2,0.5c0,0.1,0,0.3,0,0.5s0,0.4,0,0.6c0.1,0.3,0.1,0.4,0.2,0.5c0,0.1,0.1,0.1,0.1,0.1
	c0.2,0.3,0.4,0.4,0.4,0.4c0.1,0,0.2,0,0.3,0c0.1,0,0.2-0.1,0.4-0.1c0.2,0,0.4,0,0.5,0c0.1,0,0.3,0,0.4,0c0.2,0,0.3,0,0.5,0
	c0.2,0,0.3,0,0.4,0c0.2,0,0.4,0,0.5,0c0.1,0,0.2,0,0.2,0c0.5-0.1,0.8-0.1,1.1-0.1s0.6,0,0.8-0.1c0.3-0.1,0.5-0.4,0.6-0.7
	C22.7,22.8,22.6,22.5,22.2,22.4z"/>
</svg>
