<?xml version="1.0" encoding="utf-8"?>
<!-- Generator: Adobe Illustrator 25.3.1, SVG Export Plug-In . SVG Version: 6.00 Build 0)  -->
<svg version="1.1" id="Ebene_1" xmlns="http://www.w3.org/2000/svg" xmlns:xlink="http://www.w3.org/1999/xlink" x="0px" y="0px"
	 viewBox="0 0 23.8 40.6" style="enable-background:new 0 0 23.8 40.6;" xml:space="preserve">
<style type="text/css">
	.st0{fill:#FFFFFF;}
</style>
<path d="M23,22.7c-0.2-0.4-0.4-0.6-0.5-0.8c-0.1-0.1-0.2-0.3-0.3-0.6c-0.3-0.2-0.4-0.4-0.5-0.7s-0.2-0.5-0.4-0.7
	c0-0.3-0.1-0.5-0.3-0.7s-0.3-0.4-0.4-0.7c-0.1-0.2-0.1-0.4-0.2-0.4c0-0.1-0.1-0.1-0.1-0.2c0-0.2-0.1-0.4-0.1-0.4c0-0.1,0-0.1,0-0.1
	c-0.1-0.1-0.1-0.2-0.1-0.3c0-0.1,0-0.3,0-0.5c0-0.4-0.2-0.7-0.4-0.9c-0.2-0.4-0.3-0.6-0.4-0.8c-0.1-0.2-0.2-0.3-0.3-0.5
	c0-0.2,0-0.4-0.1-0.5c-0.1-0.1-0.2-0.3-0.2-0.5c-0.1-0.4-0.2-0.6-0.2-0.7c-0.1-0.1-0.1-0.2-0.1-0.3c-0.1-0.2-0.2-0.3-0.2-0.4
	c-0.1-0.1-0.1-0.3-0.2-0.4c-0.2-0.1-0.3-0.2-0.3-0.3c0-0.1-0.1-0.2-0.1-0.3c-0.1-0.2-0.2-0.4-0.3-0.5c-0.1-0.2-0.2-0.4-0.2-0.6
	c-0.2-0.1-0.3-0.2-0.3-0.3c0-0.1-0.1-0.2-0.2-0.3c-0.1-0.2-0.2-0.4-0.3-0.6c-0.1-0.1-0.2-0.3-0.3-0.6c-0.1-0.2-0.2-0.3-0.3-0.5
	c0-0.2-0.1-0.4-0.2-0.6C15.1,6.9,15,6.7,15,6.5c-0.1-0.1-0.1-0.3-0.2-0.4c-0.1-0.1-0.2-0.2-0.3-0.3s-0.2-0.2-0.3-0.3
	C14.1,5.3,14,5,13.9,4.8s-0.2-0.5-0.3-0.6c-0.2-0.4-0.3-0.6-0.5-0.7S12.9,3.2,13,3c-0.1-0.1-0.2-0.2-0.3-0.2c-0.1,0-0.2-0.1-0.2-0.2
	c0-0.2,0-0.3,0-0.4c0-0.1,0-0.1,0-0.2c-0.1-0.2-0.2-0.3-0.2-0.4s-0.1-0.1-0.1-0.2c-0.2-0.2-0.4-0.4-0.6-0.5S11,0.8,10.7,0.9
	c-0.2,0.1-0.3,0.2-0.3,0.5c0,0.2-0.1,0.4-0.2,0.6c-0.2,0.4-0.3,0.6-0.4,0.8C9.8,3,9.7,3.1,9.7,3.2C9.6,3.4,9.5,3.5,9.5,3.6
	C9.4,3.7,9.3,3.8,9.3,3.8C9.2,4,9.2,4.2,9.1,4.2C9.1,4.3,9,4.4,9,4.4C9,4.6,9,4.7,9,4.7s0,0.1-0.1,0.2l0,0.1
	C8.7,5.2,8.6,5.4,8.6,5.4c0,0.1-0.1,0.1-0.1,0.1c0,0.3-0.1,0.6-0.2,0.8C8.1,6.6,8.1,6.9,8.1,7.3C7.9,7.3,7.9,7.4,7.8,7.5
	S7.7,7.7,7.7,7.7C7.6,8,7.5,8.3,7.5,8.5S7.4,8.7,7.3,8.8C7,9,6.9,9.2,7,9.5C6.8,9.8,6.7,9.9,6.7,10c0,0.1,0,0.2,0,0.2
	c-0.2,0.4-0.3,0.7-0.4,0.9c-0.1,0.2-0.1,0.4-0.1,0.5c-0.2,0.4-0.3,0.6-0.3,0.8s-0.1,0.3-0.1,0.5c-0.3,0.2-0.4,0.5-0.5,0.8
	c-0.1,0.3-0.2,0.6-0.5,0.9c-0.1,0.4-0.2,0.7-0.2,0.7c-0.1,0.1-0.1,0.2-0.2,0.3S4.3,15.9,4.3,16c-0.1,0.1-0.1,0.3-0.2,0.4
	C4,16.4,4,16.6,4,16.7c-0.2,0.5-0.4,0.8-0.5,1c-0.1,0.2-0.3,0.4-0.4,0.5C3,18.3,3,18.4,2.9,18.5s-0.1,0.2-0.2,0.3
	c0.1,0.2,0.1,0.3,0,0.4c0,0.1-0.1,0.2-0.2,0.3c-0.1,0.4-0.2,0.7-0.3,0.9C2.1,20.6,2,20.9,2,21.2c-0.2,0.3-0.3,0.6-0.4,0.9
	c-0.1,0.3-0.2,0.6-0.3,1c-0.1,0.1-0.1,0.2-0.2,0.2C1,23.3,1,23.4,1,23.5c0.1,0.1,0.1,0.2,0.2,0.4c0.1,0.1,0.2,0.3,0.4,0.3
	c0.2,0.1,0.4,0.1,0.5,0c0.1-0.1,0.3-0.1,0.4-0.1c0.4,0,0.6,0,0.8,0c0.2,0,0.3,0,0.3,0c0.4,0.1,0.6,0.2,0.8,0.2c0.1,0,0.2,0,0.3,0
	c0.2,0,0.3,0,0.4,0c0.1,0,0.2,0,0.3,0c0.3-0.1,0.5-0.1,0.6-0.1c0.1,0,0.3,0,0.3,0c0.4-0.3,0.7-0.5,0.8-0.7c0.1-0.2,0.2-0.5,0.3-0.8
	c0.1-0.2,0.2-0.3,0.2-0.4s0-0.2,0-0.2c0.2-0.3,0.3-0.4,0.4-0.6c0.1-0.1,0.1-0.2,0.2-0.3c0.1-0.3,0.2-0.6,0.3-0.7s0.2-0.3,0.2-0.5
	c0.1-0.2,0.1-0.3,0.1-0.4c0,0,0,0,0,0c0,0.2,0,0.3,0,0.6c0,0.5,0.1,1,0.1,1.4c0.1,0.3,0.1,0.6,0,1c-0.1,0.4-0.1,0.6-0.2,0.8
	c0,0.5,0,0.9,0,1.4c0,0.4,0.1,0.8,0,1.1c0,0.2,0,0.4,0.1,0.6C9,26.6,9,26.9,9,27.2c0,0.5,0,1,0.1,1.3c0.1,0.3,0.1,0.7,0.2,1.1
	c-0.1,0.3-0.1,0.6-0.2,1c-0.1,0.4-0.1,0.7,0,0.9c0,0.3,0,0.6,0,1c0,0.4,0,0.6,0,0.7c0,0.1,0,0.2,0,0.4c0,0.1,0,0.5,0,1.1
	c0,0.3-0.1,0.6-0.1,0.9c0,0.3-0.1,0.6-0.1,0.9c0,0.1,0,0.3,0,0.6c0,0.3,0,0.7-0.1,1.3c0.1,0.3,0.1,0.6,0.2,0.9
	c0.1,0.3,0.2,0.5,0.3,0.7c0.5,0,0.8,0,1.1,0s0.5,0,0.8,0c0.2,0,0.5,0.1,0.8,0.1c0.3,0,0.6,0,1,0c0.3,0,0.7-0.1,1-0.2
	c0.3-0.1,0.7-0.2,1.2-0.2c0.2,0.1,0.3,0,0.3-0.2c0-0.2,0.1-0.3,0.2-0.4c0.1-0.7,0-1.3-0.1-1.8c-0.1-0.5-0.2-1.1-0.3-1.7
	c0-0.2,0-0.4,0-0.5c0-0.2,0-0.4,0-0.5c0-0.4-0.1-0.9-0.1-1.4c-0.1-0.5-0.1-0.9-0.2-1.1c-0.1-0.3-0.1-0.6-0.1-0.9
	c0-0.3-0.1-0.5-0.2-0.7c0.2-0.5,0.2-1.1,0.1-1.9c-0.1-0.8-0.1-1.5-0.1-2.2c0-0.2,0-0.4,0-0.6c0-0.2-0.1-0.5-0.1-0.7
	c0-0.5,0.1-1,0.2-1.5c0.1-0.5,0-0.9-0.1-1.2c0.1-0.4,0.2-0.8,0.1-1.4c-0.1-0.6-0.1-1.2,0-1.9c0.1-0.1,0.1-0.3,0.2-0.6
	c0-0.1,0-0.3,0-0.5c0,0.1,0.1,0.2,0.1,0.3c0.1,0.3,0.2,0.5,0.2,0.7c0.1,0.1,0.1,0.1,0.2,0.2c0.1,0,0.1,0.2,0.2,0.3
	c0.1,0.3,0.1,0.6,0.2,1c0.1,0.4,0.2,0.7,0.2,1c0.2,0.4,0.3,0.6,0.4,0.8c0.1,0.1,0.1,0.3,0.2,0.5c0,0.1,0,0.3,0,0.5s0,0.4,0,0.6
	c0.1,0.3,0.1,0.4,0.2,0.5c0,0.1,0.1,0.1,0.1,0.1c0.2,0.3,0.4,0.4,0.4,0.4c0.1,0,0.2,0,0.3,0c0.1,0,0.2-0.1,0.4-0.1
	c0.2,0,0.4,0,0.5,0c0.1,0,0.3,0,0.4,0c0.2,0,0.3,0,0.5,0c0.2,0,0.3,0,0.4,0c0.2,0,0.4,0,0.5,0c0.1,0,0.2,0,0.2,0
	c0.5-0.1,0.8-0.1,1.1-0.1s0.6,0,0.8-0.1c0.3-0.1,0.5-0.4,0.6-0.7C23.4,23.1,23.3,22.8,23,22.7z"/>
<path class="st0" d="M22,21.9c-0.2-0.4-0.4-0.6-0.5-0.8s-0.2-0.3-0.3-0.6c-0.3-0.2-0.4-0.4-0.5-0.7s-0.2-0.5-0.4-0.7
	c0-0.3-0.1-0.5-0.3-0.7c-0.1-0.2-0.3-0.4-0.4-0.7c-0.1-0.2-0.1-0.4-0.2-0.4c0-0.1-0.1-0.1-0.1-0.2c0-0.2-0.1-0.4-0.1-0.4
	c0-0.1,0-0.1,0-0.1c-0.1-0.1-0.1-0.2-0.1-0.3s0-0.3,0-0.5c0-0.4-0.2-0.7-0.4-0.9c-0.2-0.4-0.3-0.6-0.4-0.8s-0.2-0.3-0.3-0.5
	c0-0.2,0-0.4-0.1-0.5c-0.1-0.1-0.2-0.3-0.2-0.5c-0.1-0.4-0.2-0.6-0.2-0.7c-0.1-0.1-0.1-0.2-0.1-0.3c-0.1-0.2-0.2-0.3-0.2-0.4
	c-0.1-0.1-0.1-0.3-0.2-0.4c-0.2-0.1-0.3-0.2-0.3-0.3c0-0.1-0.1-0.2-0.1-0.3C16.1,10,16,9.8,15.9,9.6c-0.1-0.2-0.2-0.4-0.2-0.6
	c-0.2-0.1-0.3-0.2-0.3-0.3c0-0.1-0.1-0.2-0.2-0.3C15.1,8.2,15,8,14.9,7.9c-0.1-0.1-0.2-0.3-0.3-0.6c-0.1-0.2-0.2-0.3-0.3-0.5
	c0-0.2-0.1-0.4-0.2-0.6C14.1,6,14,5.9,13.9,5.7c-0.1-0.1-0.1-0.3-0.2-0.4c-0.1-0.1-0.2-0.2-0.3-0.3c-0.1-0.1-0.2-0.2-0.3-0.3
	C13.1,4.4,13,4.2,12.9,4s-0.2-0.5-0.3-0.6c-0.2-0.4-0.3-0.6-0.5-0.7c-0.2-0.1-0.2-0.2-0.1-0.5C11.9,2.1,11.8,2,11.6,2
	c-0.1,0-0.2-0.1-0.2-0.2c0-0.2,0-0.3,0-0.4c0-0.1,0-0.1,0-0.2c-0.1-0.2-0.2-0.3-0.2-0.4s-0.1-0.1-0.1-0.2c-0.2-0.2-0.4-0.4-0.6-0.5
	C10.2,0,9.9,0,9.7,0.1C9.5,0.2,9.4,0.4,9.4,0.6c0,0.2-0.1,0.4-0.2,0.6C9,1.6,8.9,1.8,8.8,2S8.7,2.3,8.7,2.3C8.6,2.6,8.5,2.7,8.4,2.8
	C8.4,2.9,8.3,3,8.3,3C8.2,3.2,8.1,3.4,8.1,3.4S8,3.6,8,3.6C8,3.8,8,3.9,7.9,3.9c0,0,0,0.1-0.1,0.2l0,0.1C7.7,4.4,7.6,4.6,7.6,4.6
	c0,0.1-0.1,0.1-0.1,0.1c0,0.3-0.1,0.6-0.2,0.8C7.1,5.8,7,6.1,7,6.5C6.9,6.5,6.8,6.6,6.8,6.7S6.7,6.9,6.7,6.9
	C6.6,7.2,6.5,7.5,6.4,7.7c0,0.2-0.1,0.3-0.1,0.3C6,8.2,5.9,8.4,6,8.7C5.8,9,5.7,9.1,5.7,9.2c0,0.1,0,0.2,0,0.2
	c-0.2,0.4-0.3,0.7-0.4,0.9c-0.1,0.2-0.1,0.4-0.1,0.5c-0.2,0.4-0.3,0.6-0.3,0.8c0,0.1-0.1,0.3-0.1,0.5c-0.3,0.2-0.4,0.5-0.5,0.8
	S4,13.6,3.8,13.8c-0.1,0.4-0.2,0.7-0.2,0.7c-0.1,0.1-0.1,0.2-0.2,0.3c0,0.1-0.1,0.2-0.2,0.3c-0.1,0.1-0.1,0.3-0.2,0.4
	C3,15.6,3,15.8,3,15.9c-0.2,0.5-0.4,0.8-0.5,1c-0.1,0.2-0.3,0.4-0.4,0.5c-0.1,0.1-0.2,0.2-0.2,0.3c0,0.1-0.1,0.2-0.2,0.3
	c0.1,0.2,0.1,0.3,0,0.4c0,0.1-0.1,0.2-0.2,0.3c-0.1,0.4-0.2,0.7-0.3,0.9c-0.1,0.2-0.2,0.5-0.3,0.7c-0.2,0.3-0.3,0.6-0.4,0.9
	c-0.1,0.3-0.2,0.6-0.3,1c-0.1,0.1-0.1,0.2-0.2,0.2S0,22.6,0,22.7c0.1,0.1,0.1,0.2,0.2,0.4s0.2,0.3,0.4,0.3c0.2,0.1,0.4,0.1,0.5,0
	c0.1-0.1,0.3-0.1,0.4-0.1c0.4,0,0.6,0,0.8,0s0.3,0,0.3,0c0.4,0.1,0.6,0.2,0.8,0.2c0.1,0,0.2,0,0.3,0c0.2,0,0.3,0,0.4,0
	c0.1,0,0.2,0,0.3,0c0.3-0.1,0.5-0.1,0.6-0.1c0.1,0,0.3,0,0.3,0c0.4-0.3,0.7-0.5,0.8-0.7s0.2-0.5,0.3-0.8c0.1-0.2,0.2-0.3,0.2-0.4
	c0-0.1,0-0.2,0-0.2c0.2-0.3,0.3-0.4,0.4-0.6c0.1-0.1,0.1-0.2,0.2-0.3c0.1-0.3,0.2-0.6,0.3-0.7c0.1-0.2,0.2-0.3,0.2-0.5
	c0.1-0.2,0.1-0.3,0.1-0.4c0,0,0,0,0,0c0,0.2,0,0.3,0,0.6c0,0.5,0.1,1,0.1,1.4c0.1,0.3,0.1,0.6,0,1c-0.1,0.4-0.1,0.6-0.2,0.8
	c0,0.5,0,0.9,0,1.4c0,0.4,0.1,0.8,0,1.1c0,0.2,0,0.4,0.1,0.6C8,25.8,8,26.1,8,26.4c0,0.5,0,1,0.1,1.3c0.1,0.3,0.1,0.7,0.2,1.1
	c-0.1,0.3-0.1,0.6-0.2,1c-0.1,0.4-0.1,0.7,0,0.9c0,0.3,0,0.6,0,1c0,0.4,0,0.6,0,0.7c0,0.1,0,0.2,0,0.4c0,0.1,0,0.5,0,1.1
	c0,0.3-0.1,0.6-0.1,0.9s-0.1,0.6-0.1,0.9c0,0.1,0,0.3,0,0.6c0,0.3,0,0.7-0.1,1.3C7.8,37.7,7.9,38,8,38.3C8,38.6,8.2,38.8,8.3,39
	c0.5,0,0.8,0,1.1,0s0.5,0,0.8,0c0.2,0,0.5,0.1,0.8,0.1c0.3,0,0.6,0,1,0c0.3,0,0.7-0.1,1-0.2c0.3-0.1,0.7-0.2,1.2-0.2
	c0.2,0.1,0.3,0,0.3-0.2c0-0.2,0.1-0.3,0.2-0.4c0.1-0.7,0-1.3-0.1-1.8c-0.1-0.5-0.2-1.1-0.3-1.7c0-0.2,0-0.4,0-0.5c0-0.2,0-0.4,0-0.5
	c0-0.4-0.1-0.9-0.1-1.4c-0.1-0.5-0.1-0.9-0.2-1.1c-0.1-0.3-0.1-0.6-0.1-0.9c0-0.3-0.1-0.5-0.2-0.7c0.2-0.5,0.2-1.1,0.1-1.9
	c-0.1-0.8-0.1-1.5-0.1-2.2c0-0.2,0-0.4,0-0.6c0-0.2-0.1-0.5-0.1-0.7c0-0.5,0.1-1,0.2-1.5c0.1-0.5,0-0.9-0.1-1.2
	c0.1-0.4,0.2-0.8,0.1-1.4c-0.1-0.6-0.1-1.2,0-1.9c0.1-0.1,0.1-0.3,0.2-0.6c0-0.1,0-0.3,0-0.5c0,0.1,0.1,0.2,0.1,0.3
	c0.1,0.3,0.2,0.5,0.2,0.7c0.1,0.1,0.1,0.1,0.2,0.2c0.1,0,0.1,0.2,0.2,0.3c0.1,0.3,0.1,0.6,0.2,1s0.2,0.7,0.2,1
	c0.2,0.4,0.3,0.6,0.4,0.8c0.1,0.1,0.1,0.3,0.2,0.5c0,0.1,0,0.3,0,0.5c0,0.2,0,0.4,0,0.6c0.1,0.3,0.1,0.4,0.2,0.5
	c0,0.1,0.1,0.1,0.1,0.1c0.2,0.3,0.4,0.4,0.4,0.4c0.1,0,0.2,0,0.3,0c0.1,0,0.2-0.1,0.4-0.1c0.2,0,0.4,0,0.5,0c0.1,0,0.3,0,0.4,0
	c0.2,0,0.3,0,0.5,0c0.2,0,0.3,0,0.4,0c0.2,0,0.4,0,0.5,0c0.1,0,0.2,0,0.2,0c0.5-0.1,0.8-0.1,1.1-0.1c0.3,0,0.6,0,0.8-0.1
	c0.3-0.1,0.5-0.4,0.6-0.7C22.4,22.3,22.3,22,22,21.9z"/>
</svg>
